# xmcd CD database file
#
# Track frame offsets:
#	150
#	18972
#	36290
#	52907
#	67402
#	81717
#	97890
#	108587
#	122730
#	139707
#	158335
#	169940
#	184375
#	201067
#	212822
#	223452
#	235225
#	248030
#	263537
#	286515
#
# Disc length: 4115 seconds
#
# Revision: 0
# Processed by: cddbd v1.5.2PL0 Copyright (c) Steve Scherf et al.
# Submitted via: CDex 1.51
#
DISCID=25101114
DTITLE=Coirbin/Hanner - By Request
DYEAR=1997
DGENRE=Country
TTITLE0=My Heart Can Take A Hit
TTITLE1=Livin' My Life Out Loud
TTITLE2=Take It All
TTITLE3=Jesus And Me
TTITLE4=Shanghai Lil
TTITLE5=Caribbean Nights
TTITLE6=Rio De Janeiro
TTITLE7=My Man In New York
TTITLE8=Can't Keep A Good Man Down
TTITLE9=Life's Got A Rhythm
TTITLE10=I've Got You
TTITLE11=Bon Temps Roulette
TTITLE12=Beautiful You
TTITLE13=Livin' The Good Life
TTITLE14=One Fine Morning
TTITLE15=Regular Joe
TTITLE16=Time Has Treated You Well
TTITLE17=Scooter, Michael, Danny and Me
TTITLE18=Play On
TTITLE19=Dinosaur
EXTD=YEAR: 1997
EXTT0=
EXTT1=
EXTT2=
EXTT3=
EXTT4=
EXTT5=
EXTT6=
EXTT7=
EXTT8=
EXTT9=
EXTT10=
EXTT11=
EXTT12=
EXTT13=
EXTT14=
EXTT15=
EXTT16=
EXTT17=
EXTT18=
EXTT19=
PLAYORDER=
